<?xml version="1.0" encoding="utf-8"?>
<!-- Generator: Adobe Illustrator 22.1.0, SVG Export Plug-In . SVG Version: 6.00 Build 0)  -->
<svg version="1.1" id="Layer_1" xmlns="http://www.w3.org/2000/svg" xmlns:xlink="http://www.w3.org/1999/xlink" x="0px" y="0px"
	 viewBox="0 0 512 512" style="enable-background:new 0 0 512 512;" xml:space="preserve">
<g>
	<title>ionic</title>
	<g>
		<path d="M460.8,162.8l-1.9-4.3l-3.2,3.5c-7.6,8.7-17.3,15.4-28.2,19.4l-3,1.2l1.3,2.9c9.3,22.3,14.1,46.3,14.1,70.5
			c0,101.4-82.4,183.8-183.8,183.8S72.2,357.3,72.2,256S154.7,72.1,256,72.1c27.5,0,54.1,5.9,78.7,17.7l2.9,1.4l1.3-2.9
			c4.5-10.7,11.6-20,20.7-27.2l3.7-3l-4.2-2.2c-31.9-16.5-67.2-25-103.1-25C131.9,31,31,131.9,31,256c0,124.1,100.9,225,225,225
			c124.1,0,225-100.9,225-225C481,223.6,474.3,192.2,460.8,162.8z M256,153.5c-56.6,0.1-102.5,45.9-102.5,102.5
			c0.1,56.6,45.9,102.5,102.5,102.5c56.6-0.1,102.5-45.9,102.5-102.5C358.5,199.4,312.6,153.5,256,153.5z M449.9,115.8
			c0,25.9-20.9,46.7-46.7,46.7c-25.9,0-46.8-20.9-46.8-46.7C356.4,53.5,449.9,53.5,449.9,115.8z"/>
	</g>
</g>
</svg>
